<mxfile host="app.diagrams.net" modified="2020-09-19T14:56:24.870Z" agent="5.0 (Windows NT 10.0; Win64; x64) AppleWebKit/537.36 (KHTML, like Gecko) Chrome/79.0.3945.117 Safari/537.36" etag="oC5xKlpNQpaLAKSIV5MS" version="13.6.9" type="github">
  <diagram id="C8aiO-9QrQOB_Y6PwhAl" name="第 1 页">
    <mxGraphModel dx="868" dy="449" grid="1" gridSize="10" guides="1" tooltips="1" connect="1" arrows="1" fold="1" page="1" pageScale="1" pageWidth="827" pageHeight="1169" math="0" shadow="0">
      <root>
        <mxCell id="0" />
        <mxCell id="1" parent="0" />
        <mxCell id="E90D5N-rsSi9anKhzdP2-4" style="rounded=0;orthogonalLoop=1;jettySize=auto;html=1;entryX=0;entryY=0.55;entryDx=0;entryDy=0;entryPerimeter=0;strokeWidth=2;" edge="1" parent="1" source="E90D5N-rsSi9anKhzdP2-2" target="E90D5N-rsSi9anKhzdP2-3">
          <mxGeometry relative="1" as="geometry" />
        </mxCell>
        <mxCell id="E90D5N-rsSi9anKhzdP2-2" value="&lt;font style=&quot;font-size: 16px&quot; color=&quot;#595959&quot;&gt;&lt;b&gt;客户端&lt;/b&gt;&lt;/font&gt;" style="shape=mxgraph.signs.people.man_1;html=1;pointerEvents=1;fillColor=#000000;strokeColor=none;verticalLabelPosition=bottom;verticalAlign=top;align=center;" vertex="1" parent="1">
          <mxGeometry x="120" y="30" width="37" height="98" as="geometry" />
        </mxCell>
        <mxCell id="E90D5N-rsSi9anKhzdP2-7" style="edgeStyle=none;rounded=0;orthogonalLoop=1;jettySize=auto;html=1;entryX=1;entryY=0.5;entryDx=0;entryDy=0;entryPerimeter=0;strokeWidth=2;" edge="1" parent="1" source="E90D5N-rsSi9anKhzdP2-3" target="E90D5N-rsSi9anKhzdP2-6">
          <mxGeometry relative="1" as="geometry" />
        </mxCell>
        <mxCell id="E90D5N-rsSi9anKhzdP2-3" value="&lt;font style=&quot;font-size: 16px&quot; color=&quot;#595959&quot;&gt;&lt;b&gt;服务端&lt;/b&gt;&lt;/font&gt;" style="shape=mxgraph.signs.people.woman_2;html=1;pointerEvents=1;fillColor=#000000;strokeColor=none;verticalLabelPosition=bottom;verticalAlign=top;align=center;" vertex="1" parent="1">
          <mxGeometry x="320" y="100" width="45" height="99" as="geometry" />
        </mxCell>
        <mxCell id="E90D5N-rsSi9anKhzdP2-5" value="&lt;font style=&quot;font-size: 16px&quot; color=&quot;#595959&quot;&gt;&lt;b&gt;喂！听得见么？&lt;br&gt;ლ(′◉❥◉｀ლ)&lt;/b&gt;&lt;/font&gt;" style="text;html=1;strokeColor=none;fillColor=none;align=center;verticalAlign=middle;whiteSpace=wrap;rounded=0;" vertex="1" parent="1">
          <mxGeometry x="140" y="80" width="240" height="20" as="geometry" />
        </mxCell>
        <mxCell id="E90D5N-rsSi9anKhzdP2-10" style="edgeStyle=none;rounded=0;orthogonalLoop=1;jettySize=auto;html=1;entryX=0;entryY=0.55;entryDx=0;entryDy=0;entryPerimeter=0;strokeWidth=2;" edge="1" parent="1" source="E90D5N-rsSi9anKhzdP2-6" target="E90D5N-rsSi9anKhzdP2-9">
          <mxGeometry relative="1" as="geometry" />
        </mxCell>
        <mxCell id="E90D5N-rsSi9anKhzdP2-6" value="&lt;font style=&quot;font-size: 16px&quot; color=&quot;#595959&quot;&gt;&lt;b&gt;客户端&lt;/b&gt;&lt;/font&gt;" style="shape=mxgraph.signs.people.man_1;html=1;pointerEvents=1;fillColor=#000000;strokeColor=none;verticalLabelPosition=bottom;verticalAlign=top;align=center;" vertex="1" parent="1">
          <mxGeometry x="120" y="199" width="37" height="98" as="geometry" />
        </mxCell>
        <mxCell id="E90D5N-rsSi9anKhzdP2-8" value="&lt;font style=&quot;font-size: 16px&quot; color=&quot;#ff6666&quot;&gt;&lt;b&gt;听的见，&lt;br&gt;你听的见吗&lt;/b&gt;&lt;/font&gt;" style="text;html=1;strokeColor=none;fillColor=none;align=center;verticalAlign=middle;whiteSpace=wrap;rounded=0;" vertex="1" parent="1">
          <mxGeometry x="180" y="179" width="130" height="20" as="geometry" />
        </mxCell>
        <mxCell id="E90D5N-rsSi9anKhzdP2-9" value="&lt;font style=&quot;font-size: 16px&quot; color=&quot;#595959&quot;&gt;&lt;b&gt;服务端&lt;/b&gt;&lt;/font&gt;" style="shape=mxgraph.signs.people.woman_2;html=1;pointerEvents=1;fillColor=#000000;strokeColor=none;verticalLabelPosition=bottom;verticalAlign=top;align=center;" vertex="1" parent="1">
          <mxGeometry x="320" y="270" width="45" height="99" as="geometry" />
        </mxCell>
        <mxCell id="E90D5N-rsSi9anKhzdP2-11" value="&lt;font color=&quot;#595959&quot;&gt;&lt;span style=&quot;font-size: 16px&quot;&gt;&lt;b&gt;我也听的见&lt;br&gt;&lt;/b&gt;&lt;/span&gt;&lt;/font&gt;&lt;font style=&quot;font-size: 16px&quot; color=&quot;#595959&quot;&gt;&lt;b&gt;(*^▽^*)&lt;/b&gt;&lt;/font&gt;" style="text;html=1;strokeColor=none;fillColor=none;align=center;verticalAlign=middle;whiteSpace=wrap;rounded=0;" vertex="1" parent="1">
          <mxGeometry x="140" y="260" width="240" height="20" as="geometry" />
        </mxCell>
        <mxCell id="E90D5N-rsSi9anKhzdP2-12" value="&lt;font style=&quot;font-size: 16px&quot; color=&quot;#595959&quot;&gt;&lt;b&gt;学英语会编程&lt;br&gt;聊天开始……&lt;/b&gt;&lt;/font&gt;" style="text;html=1;strokeColor=none;fillColor=none;align=center;verticalAlign=middle;whiteSpace=wrap;rounded=0;" vertex="1" parent="1">
          <mxGeometry x="157" y="369" width="160" height="20" as="geometry" />
        </mxCell>
        <mxCell id="E90D5N-rsSi9anKhzdP2-13" value="&lt;font style=&quot;font-size: 16px&quot;&gt;&lt;b&gt;三次握手&lt;/b&gt;&lt;/font&gt;" style="text;html=1;strokeColor=none;fillColor=none;align=center;verticalAlign=middle;whiteSpace=wrap;rounded=0;" vertex="1" parent="1">
          <mxGeometry x="205" y="20" width="80" height="20" as="geometry" />
        </mxCell>
      </root>
    </mxGraphModel>
  </diagram>
</mxfile>
